# xmcd CD database file generated by Grip 3.2.0
# 
# Track frame offsets:
#       182
#       11745
#       25975
#       36545
#       49275
#       63060
#       74677
#       85300
#       98057
#       112190
#       125525
#       137722
#       152000
#       163395
#       176380
#       188807
# 
# Disc length: 2684 seconds
# 
# Revision: 4
# Processed by: cddbd v1.5.1PL0 Copyright (c) Steve Scherf et al.
# Submitted via: Grip 3.2.0
# 
DISCID=e60a7a10
DTITLE=Willie Nelson - The Great Willie Nelson
DYEAR=1987
DGENRE=Country
TTITLE0=Night Life
TTITLE1=So Much To Do
TTITLE2=I Feel Sorry For Him
TTITLE3=Any Old Arms Won't Do
TTITLE4=A Moment Is'nt Very long
TTITLE5=Is There Something On Your Mind
TTITLE6=Blame It On the Times
TTITLE7=I Just Don't Understand
TTITLE8=Rainy Day Blues
TTITLE9=You'll Always Have Someone
TTITLE10=Follow Me Around
TTITLE11=Will You Remember Mine
TTITLE12=Suffering In Silence
TTITLE13=Everything But You
TTITLE14=I Can't Find The Time
TTITLE15=Shelter Of My Arms
EXTD=
EXTT0=
EXTT1=
EXTT2=
EXTT3=
EXTT4=
EXTT5=
EXTT6=
EXTT7=
EXTT8=
EXTT9=
EXTT10=
EXTT11=
EXTT12=
EXTT13=
EXTT14=
EXTT15=
PLAYORDER=
